<?xml version="1.0" encoding="UTF-8" standalone="no"?>
<!-- Created with Inkscape (http://www.inkscape.org/) -->

<svg xmlns:dc="http://purl.org/dc/elements/1.1/" xmlns:cc="http://creativecommons.org/ns#" xmlns:rdf="http://www.w3.org/1999/02/22-rdf-syntax-ns#" xmlns:svg="http://www.w3.org/2000/svg" xmlns="http://www.w3.org/2000/svg" version="1.1" width="990" height="765" id="svg2" xml:space="preserve"><metadata
     id="metadata8"><rdf:RDF><cc:Work
         rdf:about=""><dc:format>image/svg+xml</dc:format><dc:type
           rdf:resource="http://purl.org/dc/dcmitype/StillImage" /><dc:title></dc:title></cc:Work></rdf:RDF></metadata><defs
     id="defs6"><clipPath
       id="clipPath16"><path
         d="M 0,612 792,612 792,0 0,0 0,612 z"
         id="path18" /></clipPath></defs><g
     transform="matrix(1.25,0,0,-1.25,0,765)"
     id="g10"><g
       id="g12"><g
         clip-path="url(#clipPath16)"
         id="g14">
<g
           transform="translate(331.4155,502.2188)"
           id="g24"><path
             d="M 0,0 C -9.423,-16.333 -12.728,-34.504 -10.622,-51.875 L 9.024,-63.227 c -5.903,17.592 -4.53,37.522 5.475,54.85 18.501,32.048 59.464,43.018 91.515,24.52 32.039,-18.502 43.018,-59.472 24.523,-91.516 -10.004,-17.322 -26.583,-28.489 -44.761,-32.168 l 19.645,-11.343 c 16.102,6.869 30.191,18.819 39.621,35.138 23.119,40.057 9.394,91.266 -30.654,114.385 C 74.333,53.773 23.124,40.048 0,0"
             id="path26"
             style="fill:#ffffff;fill-opacity:1;fill-rule:nonzero;stroke:none" /></g><g
           transform="translate(286.7017,257.3057)"
           id="g28"><path
             d="m 0,0 c 40.054,-23.137 91.269,-9.412 114.395,30.642 9.424,16.318 12.721,34.5 10.615,51.883 L 105.364,93.868 C 111.267,76.288 109.894,56.343 99.89,39.009 81.393,6.971 40.417,-4.008 8.368,14.493 c -32.039,18.502 -43.012,59.465 -24.516,91.515 10.01,17.323 26.593,28.489 44.772,32.16 L 8.979,149.519 C -7.123,142.659 -21.224,130.712 -30.643,114.382 -53.773,74.328 -40.042,23.113 0,0"
             id="path30"
             style="fill:#ffffff;fill-opacity:1;fill-rule:nonzero;stroke:none" /></g><g
           transform="translate(537.3311,296.3145)"
           id="g32"><path
             d="m 0,0 c -18.497,-32.05 -59.472,-43.023 -91.517,-24.533 -24.339,14.065 -36.527,41.098 -32.854,67.328 l -15.402,8.898 c -7.752,-34.764 7.416,-71.984 39.882,-90.725 40.055,-23.12 91.27,-9.401 114.39,30.653 C 32.9,23.478 27.971,62.391 5.04,88.626 L -3.95,73.07 C 11.236,52.295 13.688,23.709 0,0 m -46.686,99.523 8.814,15.259 c -27.221,6.763 -56.186,-0.675 -76.781,-19.59 l 15.398,-8.881 c 14.832,11.563 33.985,16.395 52.569,13.212"
             id="path34"
             style="fill:#ffffff;fill-opacity:1;fill-rule:nonzero;stroke:none" /></g><g
           transform="translate(413.0029,364.2207)"
           id="g36"><path
             d="m 0,0 -2.482,1.441 -137.039,79.134 c 8.748,-10.266 11.964,-22.351 7.71,-29.589 L -0.236,-25.003 c 0.598,4.151 1.602,8.276 3.005,12.337 0.275,0.784 0.557,1.562 0.862,2.345 0.177,0.745 0.283,1.519 0.283,2.318 C 3.914,-4.75 2.375,-1.857 0,0"
             id="path38"
             style="fill:#ffffff;fill-opacity:1;fill-rule:nonzero;stroke:none" /></g><g
           transform="translate(256.5,487.4814)"
           id="g40"><path
             d="m 0,0 c -5.686,-10.069 0.1,-22.717 9.266,-32.423 l 148.111,-85.536 0.539,-0.313 c 1.401,-0.737 3.01,-1.163 4.718,-1.163 3.075,0 5.826,1.373 7.699,3.539 0.181,0.234 0.37,0.472 0.557,0.707 3.204,3.89 6.79,7.343 10.656,10.344 L 0,0 z"
             id="path42"
             style="fill:#ffffff;fill-opacity:1;fill-rule:nonzero;stroke:none" /></g></g></g></g></svg>
